<svg id="Layer_1" xmlns="http://www.w3.org/2000/svg" viewBox="0 0 400 75" style="background-color:white"><style>.st0{fill:#000}</style><path class="st0" d="M57.2 25.3v7.9H41.3v4h15.9v11.9H41.3v4h19.9V25.3z"/><path class="st0" d="M53.3 41.2H37.4V29.3h15.9v-4H33.4v27.8h4v-7.9h15.9zm22.9-10.5H86v2.7h-6.7v4.8h5.6v2.7h-5.6v6.9h-3.1V30.7zm13.7 0h5.5c1.8 0 2.7.1 3.4.5 1.7.8 2.8 2.4 2.8 4.6 0 2-1.1 3.9-2.9 4.6 0 0 .2.2.6.8l3.5 6.3h-3.4L96 41.2h-3v6.3h-3.1V30.7zm5.8 8c1.7 0 2.7-1 2.7-2.7 0-1.6-.7-2.6-3.1-2.6H93v5.3h2.7zm18.4-8.3c5 0 8.8 3.8 8.8 8.7 0 5-3.8 8.9-8.8 8.9-5 0-8.8-3.9-8.8-8.9 0-4.9 3.8-8.7 8.8-8.7zm0 14.8c3.1 0 5.6-2.6 5.6-6.1 0-3.4-2.5-5.8-5.6-5.8-3.1 0-5.6 2.5-5.6 5.8 0 3.5 2.5 6.1 5.6 6.1zM127 30.7h3.1l6.4 9.8c.6 1 1.4 2.6 1.4 2.6s-.2-1.6-.2-2.6v-9.8h3.1v17h-3.1l-6.4-9.8c-.6-1-1.4-2.6-1.4-2.6s.2 1.6.2 2.6v9.8H127v-17zm22.7 2.7h-5.6v-2.7h14.2v2.7h-5.6v14.3h-3.1V33.4zm11.8-2.7h10.2v2.7h-7.1v4.5h5.7v2.7h-5.7V45h7.5v2.7h-10.6v-17zm14.8 0h3.1l6.4 9.8c.6 1 1.4 2.6 1.4 2.6s-.2-1.6-.2-2.6v-9.8h3.1v17H187l-6.4-9.8c-.6-1-1.4-2.6-1.4-2.6s.2 1.6.2 2.6v9.8h-3.1v-17zm19.1 0h5.8c5.2 0 8.7 3.1 8.7 8.5s-3.4 8.5-8.7 8.5h-5.8v-17zM201 45c3.4 0 5.6-2 5.6-5.9 0-3.8-2.3-5.8-5.6-5.8h-2.5V45h2.5zm20.2-1.7s1.8 1.8 4.2 1.8c1.3 0 2.5-.7 2.5-2.1 0-3-8-2.5-8-7.7 0-2.8 2.4-4.9 5.7-4.9 3.4 0 5.1 1.8 5.1 1.8l-1.3 2.5s-1.6-1.5-3.8-1.5c-1.4 0-2.6.8-2.6 2 0 3 8 2.3 8 7.7 0 2.7-2.1 5-5.6 5-3.8 0-5.9-2.3-5.9-2.3l1.7-2.3zm21.5-12.9c5 0 8.8 3.8 8.8 8.7 0 5-3.8 8.9-8.8 8.9-5 0-8.8-3.9-8.8-8.9 0-4.9 3.8-8.7 8.8-8.7zm0 14.8c3.1 0 5.6-2.6 5.6-6.1 0-3.4-2.5-5.8-5.6-5.8-3.1 0-5.6 2.5-5.6 5.8 0 3.5 2.5 6.1 5.6 6.1zm12.9-14.5h3.1V45h7.3v2.7h-10.4v-17zm13.4 0h3.1v10.9c0 2.3 1.5 3.6 3.8 3.6s3.8-1.3 3.8-3.6V30.7h3.1v10.9c0 3.8-2.8 6.4-6.8 6.4-4.1 0-6.9-2.6-6.9-6.4V30.7zm22.3 2.7h-5.6v-2.7h14.2v2.7h-5.6v14.3h-3.1V33.4zm11.8-2.7h3.1v17h-3.1v-17zm16-.3c5 0 8.8 3.8 8.8 8.7 0 5-3.8 8.9-8.8 8.9-5 0-8.8-3.9-8.8-8.9 0-4.9 3.8-8.7 8.8-8.7zm0 14.8c3.1 0 5.6-2.6 5.6-6.1 0-3.4-2.5-5.8-5.6-5.8-3.1 0-5.6 2.5-5.6 5.8 0 3.5 2.5 6.1 5.6 6.1zM332 30.7h3.1l6.4 9.8c.6 1 1.4 2.6 1.4 2.6s-.2-1.6-.2-2.6v-9.8h3.1v17h-3.1l-6.4-9.8c-.6-1-1.4-2.6-1.4-2.6s.2 1.6.2 2.6v9.8H332v-17zm19.5 12.6s1.8 1.8 4.2 1.8c1.3 0 2.5-.7 2.5-2.1 0-3-8-2.5-8-7.7 0-2.8 2.4-4.9 5.7-4.9 3.4 0 5.1 1.8 5.1 1.8l-1.3 2.5s-1.6-1.5-3.8-1.5c-1.4 0-2.6.8-2.6 2 0 3 8 2.3 8 7.7 0 2.7-2.1 5-5.6 5-3.8 0-5.9-2.3-5.9-2.3l1.7-2.3z"/></svg>